<svg xmlns="http://www.w3.org/2000/svg" viewBox="0 0 100 120">
  <!-- Same geometry as src/components/brand/BrandMark.tsx. Change one, change both. -->
  <path d="M24.8 104.2A44 54 0 0 1 72 13.2" fill="none" stroke="#1558B0" stroke-width="5" stroke-linecap="round"/>
  <path d="M81.1 21.8A44 54 0 0 1 42.4 113.2" fill="none" stroke="#2A9A3F" stroke-width="5" stroke-linecap="round"/>
  <line x1="50" y1="20" x2="50" y2="88" stroke="#1558B0" stroke-width="4.6" stroke-linecap="round"/>
  <circle cx="50" cy="15" r="5.4" fill="#1558B0"/>
  <path d="M57 28C66 31 63 39 50 41C37 43 36 51 50 53C64 55 64 63 50 65C37 67 37 75 50 77C57 78 58 81 55 84" fill="none" stroke="#2A9A3F" stroke-width="4.2" stroke-linecap="round"/>
  <ellipse cx="60" cy="25.5" rx="5.2" ry="3.4" transform="rotate(-25 60 25.5)" fill="#2A9A3F"/>
  <circle cx="61.6" cy="24.5" r="0.9" fill="#fff"/>
  <path d="M64.6 23.2l4.2-2.2M64.6 23.2l4.6.4" stroke="#2A9A3F" stroke-width="0.9" stroke-linecap="round"/>
  <line x1="50" y1="49" x2="50" y2="57" stroke="#1558B0" stroke-width="4.6"/>
  <line x1="50" y1="73" x2="50" y2="81" stroke="#1558B0" stroke-width="4.6"/>
  <g fill="#1558B0">
    <path d="M17 72C15 90 30 107 47 110L49 104.5C36 101 27 92 25 82C24.2 78 21 73 17 72Z"/>
    <path d="M25 82C24 76 28.5 74.5 31 79.5L33.5 85C31 86 28 85.5 25 82Z"/>
  </g>
  <g fill="#2A9A3F" transform="translate(100 0) scale(-1 1)">
    <path d="M17 72C15 90 30 107 47 110L49 104.5C36 101 27 92 25 82C24.2 78 21 73 17 72Z"/>
    <path d="M25 82C24 76 28.5 74.5 31 79.5L33.5 85C31 86 28 85.5 25 82Z"/>
  </g>
  <path d="M45.5 86h9v7h7v9h-7v7h-9v-7h-7v-9h7z" fill="#2A9A3F" stroke="#2A9A3F" stroke-width="1.2" stroke-linejoin="round"/>
  <path d="M39.5 97.5h6l1.6-4 2.6 8 2-6 1.4 2h7" fill="none" stroke="#fff" stroke-width="1.3" stroke-linecap="round" stroke-linejoin="round"/>
</svg>
